<svg width="271" height="124" viewBox="0 0 271 124" fill="none" xmlns="http://www.w3.org/2000/svg">
<path d="M50.855 43.59C50.855 47.3 50.225 50.7183 48.965 53.845C47.7283 56.9483 45.9667 59.62 43.68 61.86C41.4167 64.1 38.6867 65.85 35.49 67.11C32.2933 68.37 28.7467 69 24.85 69H5.32V18.215H24.85C28.7467 18.215 32.2933 18.845 35.49 20.105C38.6867 21.365 41.4167 23.1267 43.68 25.39C45.9667 27.63 47.7283 30.3017 48.965 33.405C50.225 36.5083 50.855 39.9033 50.855 43.59ZM40.075 43.59C40.075 40.93 39.725 38.5383 39.025 36.415C38.325 34.2917 37.3217 32.495 36.015 31.025C34.7083 29.555 33.11 28.4233 31.22 27.63C29.3533 26.8367 27.23 26.44 24.85 26.44H15.89V60.775H24.85C27.23 60.775 29.3533 60.39 31.22 59.62C33.11 58.8267 34.7083 57.695 36.015 56.225C37.3217 54.7317 38.325 52.9233 39.025 50.8C39.725 48.6767 40.075 46.2733 40.075 43.59ZM66.6351 32.915V69H56.9751V32.915H66.6351ZM67.7901 22.66C67.7901 23.4767 67.6267 24.235 67.3001 24.935C66.9734 25.635 66.5301 26.2533 65.9701 26.79C65.4334 27.3267 64.7917 27.7467 64.0451 28.05C63.3217 28.3533 62.5401 28.505 61.7001 28.505C60.9067 28.505 60.1484 28.3533 59.4251 28.05C58.7251 27.7467 58.1067 27.3267 57.5701 26.79C57.0334 26.2533 56.6017 25.635 56.2751 24.935C55.9717 24.235 55.8201 23.4767 55.8201 22.66C55.8201 21.8433 55.9717 21.085 56.2751 20.385C56.6017 19.6617 57.0334 19.0317 57.5701 18.495C58.1067 17.9583 58.7251 17.5383 59.4251 17.235C60.1484 16.9317 60.9067 16.78 61.7001 16.78C62.5401 16.78 63.3217 16.9317 64.0451 17.235C64.7917 17.5383 65.4334 17.9583 65.9701 18.495C66.5301 19.0317 66.9734 19.6617 67.3001 20.385C67.6267 21.085 67.7901 21.8433 67.7901 22.66ZM88.3187 49.61C90.302 49.61 91.7603 49.1083 92.6937 48.105C93.6503 47.1017 94.1287 45.8067 94.1287 44.22C94.1287 42.5633 93.6503 41.2683 92.6937 40.335C91.7603 39.3783 90.302 38.9 88.3187 38.9C86.3353 38.9 84.877 39.3783 83.9437 40.335C83.0103 41.2683 82.5437 42.5633 82.5437 44.22C82.5437 45.7833 83.0103 47.0783 83.9437 48.105C84.9003 49.1083 86.3587 49.61 88.3187 49.61ZM97.4537 70.47C97.4537 69.84 97.2553 69.3267 96.8587 68.93C96.462 68.5333 95.9253 68.2183 95.2487 67.985C94.5953 67.7517 93.8137 67.5883 92.9037 67.495C91.9937 67.3783 91.0253 67.2967 89.9987 67.25C88.972 67.18 87.9103 67.1217 86.8137 67.075C85.717 67.0283 84.6437 66.9467 83.5937 66.83C82.777 67.32 82.1003 67.9033 81.5637 68.58C81.0503 69.2333 80.7937 69.98 80.7937 70.82C80.7937 71.4033 80.922 71.94 81.1787 72.43C81.4587 72.92 81.9137 73.34 82.5437 73.69C83.1737 74.04 84.002 74.3083 85.0287 74.495C86.0553 74.705 87.3387 74.81 88.8787 74.81C90.4653 74.81 91.807 74.705 92.9037 74.495C94.0003 74.285 94.887 73.9817 95.5637 73.585C96.2403 73.2117 96.7187 72.7567 96.9987 72.22C97.302 71.6833 97.4537 71.1 97.4537 70.47ZM107.044 34.105V37.64C107.044 38.2 106.88 38.6433 106.554 38.97C106.25 39.2967 105.737 39.5417 105.014 39.705L102.074 40.3C102.47 41.4433 102.669 42.6683 102.669 43.975C102.669 45.7717 102.295 47.3933 101.549 48.84C100.825 50.2633 99.822 51.4883 98.5387 52.515C97.2553 53.5183 95.7387 54.3 93.9887 54.86C92.2387 55.3967 90.3487 55.665 88.3187 55.665C87.0353 55.665 85.8337 55.56 84.7137 55.35C83.7337 55.9567 83.2437 56.6217 83.2437 57.345C83.2437 58.0217 83.5703 58.5117 84.2237 58.815C84.9003 59.1183 85.7753 59.34 86.8487 59.48C87.9453 59.5967 89.182 59.6783 90.5587 59.725C91.9587 59.7483 93.3703 59.8183 94.7937 59.935C96.2403 60.0517 97.652 60.2617 99.0287 60.565C100.429 60.845 101.665 61.3233 102.739 62C103.835 62.6533 104.71 63.5283 105.364 64.625C106.04 65.7217 106.379 67.1333 106.379 68.86C106.379 70.47 105.982 72.0333 105.189 73.55C104.395 75.0667 103.24 76.42 101.724 77.61C100.23 78.8 98.387 79.7567 96.1937 80.48C94.0003 81.2033 91.5037 81.565 88.7037 81.565C85.927 81.565 83.512 81.2967 81.4587 80.76C79.4287 80.2467 77.737 79.5467 76.3837 78.66C75.0537 77.7967 74.062 76.7933 73.4087 75.65C72.7553 74.5067 72.4287 73.3167 72.4287 72.08C72.4287 70.47 72.9187 69.105 73.8987 67.985C74.8787 66.865 76.232 65.9667 77.9587 65.29C77.0487 64.7767 76.3137 64.1117 75.7537 63.295C75.217 62.455 74.9487 61.37 74.9487 60.04C74.9487 58.9667 75.3337 57.835 76.1037 56.645C76.897 55.455 78.1103 54.4633 79.7437 53.67C77.9003 52.69 76.442 51.3833 75.3687 49.75C74.2953 48.0933 73.7587 46.1683 73.7587 43.975C73.7587 42.1783 74.1203 40.5567 74.8437 39.11C75.5903 37.6633 76.617 36.4383 77.9237 35.435C79.2303 34.4083 80.7703 33.6267 82.5437 33.09C84.317 32.5533 86.242 32.285 88.3187 32.285C91.3987 32.285 94.117 32.8917 96.4737 34.105H107.044ZM122.006 32.915V69H112.346V32.915H122.006ZM123.161 22.66C123.161 23.4767 122.998 24.235 122.671 24.935C122.345 25.635 121.901 26.2533 121.341 26.79C120.805 27.3267 120.163 27.7467 119.416 28.05C118.693 28.3533 117.911 28.505 117.071 28.505C116.278 28.505 115.52 28.3533 114.796 28.05C114.096 27.7467 113.478 27.3267 112.941 26.79C112.405 26.2533 111.973 25.635 111.646 24.935C111.343 24.235 111.191 23.4767 111.191 22.66C111.191 21.8433 111.343 21.085 111.646 20.385C111.973 19.6617 112.405 19.0317 112.941 18.495C113.478 17.9583 114.096 17.5383 114.796 17.235C115.52 16.9317 116.278 16.78 117.071 16.78C117.911 16.78 118.693 16.9317 119.416 17.235C120.163 17.5383 120.805 17.9583 121.341 18.495C121.901 19.0317 122.345 19.6617 122.671 20.385C122.998 21.085 123.161 21.8433 123.161 22.66ZM167.183 26.685H152.343V69H141.808V26.685H126.968V18.215H167.183V26.685ZM186.704 46.705C186.704 45.7017 186.564 44.745 186.284 43.835C186.028 42.925 185.608 42.12 185.024 41.42C184.441 40.72 183.706 40.1717 182.819 39.775C181.933 39.355 180.871 39.145 179.634 39.145C177.324 39.145 175.516 39.7983 174.209 41.105C172.903 42.4117 172.051 44.2783 171.654 46.705H186.704ZM171.514 52.445C171.818 55.8283 172.774 58.3017 174.384 59.865C176.018 61.4283 178.141 62.21 180.754 62.21C182.084 62.21 183.228 62.0583 184.184 61.755C185.164 61.4283 186.016 61.0783 186.739 60.705C187.486 60.3083 188.151 59.9583 188.734 59.655C189.341 59.3283 189.936 59.165 190.519 59.165C191.266 59.165 191.849 59.445 192.269 60.005L195.069 63.505C194.043 64.695 192.911 65.6867 191.674 66.48C190.438 67.25 189.154 67.8683 187.824 68.335C186.494 68.7783 185.153 69.0817 183.799 69.245C182.446 69.4317 181.139 69.525 179.879 69.525C177.359 69.525 175.003 69.1167 172.809 68.3C170.639 67.46 168.738 66.235 167.104 64.625C165.494 62.9917 164.223 60.9733 163.289 58.57C162.356 56.1667 161.889 53.3783 161.889 50.205C161.889 47.755 162.286 45.445 163.079 43.275C163.896 41.105 165.063 39.215 166.579 37.605C168.096 35.995 169.939 34.7233 172.109 33.79C174.279 32.8333 176.729 32.355 179.459 32.355C181.769 32.355 183.893 32.7283 185.829 33.475C187.789 34.1983 189.469 35.26 190.869 36.66C192.293 38.06 193.389 39.7867 194.159 41.84C194.953 43.87 195.349 46.1917 195.349 48.805C195.349 49.5283 195.314 50.1233 195.244 50.59C195.174 51.0567 195.058 51.43 194.894 51.71C194.731 51.99 194.509 52.1883 194.229 52.305C193.949 52.3983 193.588 52.445 193.144 52.445H171.514ZM227.524 40.965C227.244 41.3383 226.964 41.63 226.684 41.84C226.404 42.0267 226.007 42.12 225.494 42.12C225.027 42.12 224.572 41.9917 224.129 41.735C223.709 41.455 223.219 41.1633 222.659 40.86C222.099 40.5333 221.434 40.2417 220.664 39.985C219.894 39.705 218.937 39.565 217.794 39.565C216.347 39.565 215.087 39.8333 214.014 40.37C212.964 40.8833 212.089 41.63 211.389 42.61C210.689 43.59 210.164 44.78 209.814 46.18C209.487 47.58 209.324 49.155 209.324 50.905C209.324 54.5917 210.059 57.415 211.529 59.375C213.022 61.335 215.052 62.315 217.619 62.315C218.505 62.315 219.264 62.245 219.894 62.105C220.547 61.9417 221.107 61.7433 221.574 61.51C222.064 61.2767 222.484 61.02 222.834 60.74C223.184 60.46 223.51 60.2033 223.814 59.97C224.14 59.7367 224.455 59.55 224.759 59.41C225.085 59.2467 225.447 59.165 225.844 59.165C226.59 59.165 227.174 59.445 227.594 60.005L230.359 63.505C229.332 64.695 228.235 65.6867 227.069 66.48C225.902 67.25 224.689 67.8683 223.429 68.335C222.192 68.7783 220.932 69.0817 219.649 69.245C218.365 69.4317 217.094 69.525 215.834 69.525C213.617 69.525 211.517 69.1167 209.534 68.3C207.55 67.46 205.812 66.2467 204.319 64.66C202.825 63.0733 201.635 61.125 200.749 58.815C199.885 56.505 199.454 53.8683 199.454 50.905C199.454 48.2683 199.839 45.8183 200.609 43.555C201.379 41.2917 202.51 39.3317 204.004 37.675C205.497 36.0183 207.34 34.7233 209.534 33.79C211.75 32.8333 214.305 32.355 217.199 32.355C219.952 32.355 222.367 32.7983 224.444 33.685C226.52 34.5717 228.387 35.855 230.044 37.535L227.524 40.965ZM244.91 36.45C245.586 35.8433 246.286 35.295 247.01 34.805C247.756 34.2917 248.538 33.86 249.355 33.51C250.195 33.1367 251.081 32.8567 252.015 32.67C252.971 32.46 253.998 32.355 255.095 32.355C257.055 32.355 258.793 32.6933 260.31 33.37C261.826 34.0467 263.098 34.9917 264.125 36.205C265.175 37.4183 265.956 38.865 266.47 40.545C267.006 42.225 267.275 44.0683 267.275 46.075V69H257.65V46.075C257.65 44.0683 257.183 42.5167 256.25 41.42C255.316 40.3 253.94 39.74 252.12 39.74C250.766 39.74 249.495 40.0317 248.305 40.615C247.115 41.1983 245.983 42.015 244.91 43.065V69H235.25V16.815H244.91V36.45Z" fill="black"/>
<path d="M3.525 113V87.675H6.2C6.83333 87.675 7.225 87.9833 7.375 88.6L7.7 91.2C8.63333 90.05 9.68333 89.1083 10.85 88.375C12.0167 87.6417 13.3667 87.275 14.9 87.275C16.6 87.275 17.975 87.75 19.025 88.7C20.0917 89.65 20.8583 90.9333 21.325 92.55C21.6917 91.6333 22.1583 90.8417 22.725 90.175C23.3083 89.5083 23.9583 88.9583 24.675 88.525C25.3917 88.0917 26.15 87.775 26.95 87.575C27.7667 87.375 28.5917 87.275 29.425 87.275C30.7583 87.275 31.9417 87.4917 32.975 87.925C34.025 88.3417 34.9083 88.9583 35.625 89.775C36.3583 90.5917 36.9167 91.6 37.3 92.8C37.6833 93.9833 37.875 95.3417 37.875 96.875V113H33.4V96.875C33.4 94.8917 32.9667 93.3917 32.1 92.375C31.2333 91.3417 29.9833 90.825 28.35 90.825C27.6167 90.825 26.9167 90.9583 26.25 91.225C25.6 91.475 25.025 91.85 24.525 92.35C24.025 92.85 23.625 93.4833 23.325 94.25C23.0417 95 22.9 95.875 22.9 96.875V113H18.425V96.875C18.425 94.8417 18.0167 93.325 17.2 92.325C16.3833 91.325 15.1917 90.825 13.625 90.825C12.525 90.825 11.5083 91.125 10.575 91.725C9.64167 92.3083 8.78333 93.1083 8 94.125V113H3.525ZM49.3383 87.675V113H44.8883V87.675H49.3383ZM50.2883 79.725C50.2883 80.1583 50.1966 80.5667 50.0133 80.95C49.8466 81.3167 49.6133 81.65 49.3133 81.95C49.0299 82.2333 48.6883 82.4583 48.2883 82.625C47.9049 82.7917 47.4966 82.875 47.0633 82.875C46.6299 82.875 46.2216 82.7917 45.8383 82.625C45.4716 82.4583 45.1466 82.2333 44.8633 81.95C44.5799 81.65 44.3549 81.3167 44.1883 80.95C44.0216 80.5667 43.9383 80.1583 43.9383 79.725C43.9383 79.2917 44.0216 78.8833 44.1883 78.5C44.3549 78.1 44.5799 77.7583 44.8633 77.475C45.1466 77.175 45.4716 76.9417 45.8383 76.775C46.2216 76.6083 46.6299 76.525 47.0633 76.525C47.4966 76.525 47.9049 76.6083 48.2883 76.775C48.6883 76.9417 49.0299 77.175 49.3133 77.475C49.6133 77.7583 49.8466 78.1 50.0133 78.5C50.1966 78.8833 50.2883 79.2917 50.2883 79.725ZM61.25 76.175V113H56.8V76.175H61.25ZM82.1914 101.6C80.1414 101.667 78.3914 101.833 76.9414 102.1C75.5081 102.35 74.3331 102.683 73.4164 103.1C72.5164 103.517 71.8581 104.008 71.4414 104.575C71.0414 105.142 70.8414 105.775 70.8414 106.475C70.8414 107.142 70.9497 107.717 71.1664 108.2C71.3831 108.683 71.6747 109.083 72.0414 109.4C72.4247 109.7 72.8664 109.925 73.3664 110.075C73.8831 110.208 74.4331 110.275 75.0164 110.275C75.7997 110.275 76.5164 110.2 77.1664 110.05C77.8164 109.883 78.4247 109.65 78.9914 109.35C79.5747 109.05 80.1247 108.692 80.6414 108.275C81.1747 107.858 81.6914 107.383 82.1914 106.85V101.6ZM67.8164 91.25C69.2164 89.9 70.7247 88.8917 72.3414 88.225C73.9581 87.5583 75.7497 87.225 77.7164 87.225C79.1331 87.225 80.3914 87.4583 81.4914 87.925C82.5914 88.3917 83.5164 89.0417 84.2664 89.875C85.0164 90.7083 85.5831 91.7167 85.9664 92.9C86.3497 94.0833 86.5414 95.3833 86.5414 96.8V113H84.5664C84.1331 113 83.7997 112.933 83.5664 112.8C83.3331 112.65 83.1497 112.367 83.0164 111.95L82.5164 109.55C81.8497 110.167 81.1997 110.717 80.5664 111.2C79.9331 111.667 79.2664 112.067 78.5664 112.4C77.8664 112.717 77.1164 112.958 76.3164 113.125C75.5331 113.308 74.6581 113.4 73.6914 113.4C72.7081 113.4 71.7831 113.267 70.9164 113C70.0497 112.717 69.2914 112.3 68.6414 111.75C68.0081 111.2 67.4997 110.508 67.1164 109.675C66.7497 108.825 66.5664 107.825 66.5664 106.675C66.5664 105.675 66.8414 104.717 67.3914 103.8C67.9414 102.867 68.8331 102.042 70.0664 101.325C71.2997 100.608 72.9081 100.025 74.8914 99.575C76.8747 99.1083 79.3081 98.8417 82.1914 98.775V96.8C82.1914 94.8333 81.7664 93.35 80.9164 92.35C80.0664 91.3333 78.8247 90.825 77.1914 90.825C76.0914 90.825 75.1664 90.9667 74.4164 91.25C73.6831 91.5167 73.0414 91.825 72.4914 92.175C71.9581 92.5083 71.4914 92.8167 71.0914 93.1C70.7081 93.3667 70.3247 93.5 69.9414 93.5C69.6414 93.5 69.3831 93.425 69.1664 93.275C68.9497 93.1083 68.7664 92.9083 68.6164 92.675L67.8164 91.25ZM97.5199 91.35C98.0699 90.7333 98.6533 90.175 99.2699 89.675C99.8866 89.175 100.537 88.75 101.22 88.4C101.92 88.0333 102.653 87.7583 103.42 87.575C104.203 87.375 105.045 87.275 105.945 87.275C107.328 87.275 108.545 87.5083 109.595 87.975C110.662 88.425 111.545 89.075 112.245 89.925C112.962 90.7583 113.503 91.7667 113.87 92.95C114.237 94.1333 114.42 95.4417 114.42 96.875V113H109.945V96.875C109.945 94.9583 109.503 93.475 108.62 92.425C107.753 91.3583 106.428 90.825 104.645 90.825C103.328 90.825 102.095 91.1417 100.945 91.775C99.8116 92.4083 98.7616 93.2667 97.7949 94.35V113H93.3199V87.675H95.9949C96.6283 87.675 97.0199 87.9833 97.1699 88.6L97.5199 91.35Z" fill="black"/>
</svg>
