<svg width="523" height="59" viewBox="0 0 523 59" fill="none" xmlns="http://www.w3.org/2000/svg">
<g clip-path="url(#clip0)">
<path d="M3.9 3.425H24.6C29.25 3.425 33.35 4.475 36.9 6.575C40.45 8.625 43.2 11.625 45.15 15.575C47.15 19.475 48.15 24.15 48.15 29.6C48.15 35.15 47.15 39.9 45.15 43.85C43.15 47.8 40.35 50.8 36.75 52.85C33.2 54.9 29.1 55.925 24.45 55.925H3.9V3.425ZM22.275 45.425C26.375 45.425 29.625 44.25 32.025 41.9C34.425 39.55 35.625 35.45 35.625 29.6C35.625 23.75 34.425 19.65 32.025 17.3C29.675 14.95 26.425 13.775 22.275 13.775H15.225V45.425H22.275ZM52.1818 3.5H63.9568V56H52.1818V3.5ZM91.2844 56.675C86.3844 56.675 82.2094 55.4 78.7594 52.85C75.3594 50.3 72.8094 46.975 71.1094 42.875C69.4094 38.775 68.5594 34.4 68.5594 29.75C68.5594 24.95 69.4344 20.475 71.1844 16.325C72.9844 12.175 75.6844 8.825 79.2844 6.275C82.8844 3.725 87.2844 2.45 92.4844 2.45C98.4344 2.45 103.309 4.125 107.109 7.475C110.959 10.775 113.659 15.1 115.209 20.45H102.909C102.259 18.1 101.059 16.225 99.3094 14.825C97.5594 13.425 95.3094 12.725 92.5594 12.725C88.6094 12.725 85.5844 14.3 83.4844 17.45C81.3844 20.6 80.3344 24.8 80.3344 30.05C80.3344 35.55 81.4594 39.825 83.7094 42.875C85.9594 45.875 89.1094 47.375 93.1594 47.375C96.6594 47.375 99.3094 46.3 101.109 44.15C102.959 42 103.909 39.475 103.959 36.575V35.6H94.1344V27.275H115.434V56H106.809V48.575H106.209C103.259 53.975 98.2844 56.675 91.2844 56.675ZM121.841 3.5H133.616V56H121.841V3.5ZM176.994 13.7H163.194V56H151.569V13.7H137.769V3.5H176.994V13.7ZM192.203 13.7V24.875H212.153V33.95H192.203V45.8H215.903V56H180.428V3.5H215.903V13.7H192.203ZM242.934 56.675C237.884 56.675 233.534 55.45 229.884 53C226.284 50.5 223.534 47.175 221.634 43.025C219.784 38.875 218.859 34.375 218.859 29.525C218.859 24.675 219.784 20.2 221.634 16.1C223.534 11.95 226.284 8.65 229.884 6.2C233.534 3.7 237.884 2.45 242.934 2.45C249.084 2.45 254.109 4.25 258.009 7.85C261.909 11.45 264.434 16.1 265.584 21.8H254.259C253.659 19.2 252.359 17.025 250.359 15.275C248.409 13.525 245.984 12.65 243.084 12.65C239.084 12.65 236.059 14.225 234.009 17.375C232.009 20.475 231.009 24.525 231.009 29.525C231.009 34.625 232.009 38.725 234.009 41.825C236.059 44.925 239.084 46.475 243.084 46.475C245.934 46.475 248.309 45.625 250.209 43.925C252.159 42.225 253.459 40.2 254.109 37.85H265.284C264.184 43.35 261.684 47.875 257.784 51.425C253.934 54.925 248.984 56.675 242.934 56.675ZM312.257 3.5V56H300.482V34.25H280.757V56H269.057V3.5H280.757V25.1H300.482V3.5H312.257ZM320.034 3.5H323.634L343.209 51.5H343.509L363.084 3.5H366.684V56H364.134V8.6H363.834L344.634 56H342.084L322.884 8.6H322.584V56H320.034V3.5ZM377.825 3.5H380.45V56H377.825V3.5ZM420.472 53.45V56H391.672L391.597 3.5H394.222L394.072 53.45H420.472ZM459.128 38.375H434.303L427.403 56H424.778L445.253 3.5H447.878L468.728 56H466.103L459.128 38.375ZM458.153 35.975L446.678 7.025H446.528L435.203 35.975H458.153ZM476.344 3.5H478.969L513.769 51.35H514.069V3.5H516.619V56H513.994L479.194 8.15H478.894V56H476.344V3.5Z" fill="white"/>
</g>
<defs>
<clipPath id="clip0">
<rect width="523" height="59" fill="white"/>
</clipPath>
</defs>
</svg>
